# xmcd
#
# Track frame offsets:
#	150
#	17133
#	31638
#	47449
#	65622
#	82591
#	100201
#	121247
#	140233
#	158222
#	175475
#	190441
#	204934
#	228349
#	246429
#	263059
#
# Disc length: 3754 seconds
#
# Revision: 1
# Processed by: cddbd v1.5.1PL2 Copyright (c) Steve Scherf et al.
# Submitted via: audiograbber 1.83.01
#
DISCID=d30ea810
DTITLE=versch - Ohrwürmer - Die Hits, die imOhr bleiben 2. Die Zweite Vol. 2 CD
DTITLE=1
DYEAR=1900
DGENRE=Pop
TTITLE0=4 The Cause - Stand by me
TTITLE1=Sweetbox - Everything's gonna be alright
TTITLE2=Shanks and Bigfoot - Sweet like chocolate
TTITLE3=N'Trance feat. Rod Stewart - Do ya think I'm sexy
TTITLE4=Down Low - Once upon a time
TTITLE5=Ghetto People feat. L-Viz - In the ghetto
TTITLE6=Qwest feat. Shannon - Let the music play
TTITLE7=Captain Hollywood Project - More and more
TTITLE8=PM Dawn - Set adrift on memory bliss
TTITLE9=DJ Bobo - Around the world
TTITLE10=Double You - Please don't go
TTITLE11=Yazoo - Only you
TTITLE12=Cretu, Michael - Samurai
TTITLE13=Sandra - Maria Magdalena
TTITLE14=W. Kristine - Feel what you want
TTITLE15=Backstreet Boys - All I have to give
EXTD=
EXTT0=
EXTT1=
EXTT2=
EXTT3=
EXTT4=
EXTT5=
EXTT6=
EXTT7=
EXTT8=
EXTT9=
EXTT10=
EXTT11=
EXTT12=
EXTT13=
EXTT14=
EXTT15=
PLAYORDER=
